# xmcd CD database file
#
# Track frame offsets:
#	150
#	17958
#	39138
#	58715
#	82068
#	96928
#	111768
#	131760
#	148970
#	170333
#	188955
#	208355
#	230000
#	250110
#	266323
#
# Disc length: 3716 seconds
#
# Revision: 0
# Processed by: cddbd v1.5.1PL0 Copyright (c) Steve Scherf et al.
# Submitted via: CDex 1.51
#
DISCID=dc0e820f
DTITLE=Various Artist - 14 Cañonazos Bailables Vol. 33
DYEAR=1993
DGENRE=Salsa
TTITLE0=Baile De La Quebradita
TTITLE1=Junto A Tu Corazón
TTITLE2=Muchacha Encantadora
TTITLE3=Si Supieras
TTITLE4=Ella Es Mi Gloria
TTITLE5=Lupita
TTITLE6=De Amor Y De Miel
TTITLE7=Todo El Mundo Necesita Amor
TTITLE8=Tu Amigo O Tu Amante
TTITLE9=Si Me Dejaras
TTITLE10=Noches De Media Luna
TTITLE11=Mosaico Piña: Colombia Tierra Querida - Vaca Vieja - Atlántico - El Cebú
TTITLE12=Dulcemente Bella
TTITLE13=Pídeme La Luna
TTITLE14=La Gota Fria
EXTD=YEAR: 1993
EXTT0=
EXTT1=
EXTT2=
EXTT3=
EXTT4=
EXTT5=
EXTT6=
EXTT7=
EXTT8=
EXTT9=
EXTT10=
EXTT11=
EXTT12=
EXTT13=
EXTT14=
PLAYORDER=
